
<svg t="1732846939350" class="icon" viewBox="0 0 1024 1024" version="1.1" xmlns="http://www.w3.org/2000/svg" p-id="18893" width="128" height="128"><path d="M682.615041 457.479436a177.277673 177.277673 0 0 0-34.367549-61.631192c71.679059-90.238816 209.085256-74.367024 294.588133-47.615375 59.647217 18.751754 98.878702-50.559336 72.959043-100.030687a558.392671 558.392671 0 0 0-78.078976-113.47051 564.920585 564.920585 0 0 0-125.246356-106.238606 182.333607 182.333607 0 0 0-223.101071 21.631716 415.22655 415.22655 0 0 0-132.094267 291.196178 179.005651 179.005651 0 0 0-61.631191 34.367549C305.403992 304.00945 321.275783 166.603253 348.15543 81.100376 366.907184 21.389159 297.596094-17.714327 247.996745 8.141333c-39.999475 20.735728-78.078975 46.719387-113.342512 77.950977a568.312541 568.312541 0 0 0-106.238606 125.438354 182.013611 182.013611 0 0 0 21.759714 223.037072 415.354548 415.354548 0 0 0 291.196178 132.158266c7.359903 22.719702 19.199748 43.711426 34.367549 61.567192-71.871057 90.238816-209.085256 74.367024-294.588133 47.487376-59.647217-18.687755-98.878702 50.559336-72.959043 100.030687 20.735728 39.999475 46.719387 78.206974 78.078976 113.470511a564.920585 564.920585 0 0 0 125.246356 106.238606c71.679059 44.799412 161.341882 36.031527 223.101072-21.759715a414.970554 414.970554 0 0 0 132.094266-291.068179 181.117623 181.117623 0 0 0 61.631191-34.367549c90.238816 71.679059 74.367024 209.085256 47.487377 294.588133-18.751754 59.583218 50.559336 98.878702 100.158685 72.959043a559.160661 559.160661 0 0 0 113.342513-78.078976 567.736548 567.736548 0 0 0 106.238605-125.246356 181.949612 181.949612 0 0 0-21.759714-223.101071 415.162551 415.162551 0 0 0-291.196178-131.966268zM511.99328 614.405376A102.398656 102.398656 0 1 1 512.121278 409.608064 102.398656 102.398656 0 0 1 511.99328 614.405376z" fill="#56A5F0" p-id="18894"></path></svg>